<svg width="76" height="24" viewBox="0 0 76 24" fill="none" xmlns="http://www.w3.org/2000/svg">
<g id="Logo" clip-path="url(#clip0_115_1240)">
<path id="Vector" d="M65.9891 15.7943C66.0235 15.4902 66.0413 15.1835 66.0413 14.8705C66.0413 10.1546 62.1322 6.33203 57.3107 6.33203C52.4892 6.33203 48.5801 10.1546 48.5801 14.8705C48.5801 19.5864 52.4892 23.4077 57.3107 23.4077C60.978 23.4077 64.1135 21.1999 65.4076 18.0645L61.6448 17.4053C60.8101 18.931 59.2334 19.9592 57.4303 19.9592C55.038 19.9592 53.0555 18.1599 52.6572 15.7943H65.9891ZM57.4316 9.87721C59.4739 9.87721 61.2224 11.193 61.9337 13.0546H52.9257C53.6357 11.193 55.3854 9.87721 57.4316 9.87721Z" fill="white"/>
<path id="Vector_2" d="M46.2339 6.69092H41.7764V23.0998H46.2339V6.69092Z" fill="white"/>
<path id="Vector_3" d="M44.0053 0C42.6297 0 41.5176 1.11471 41.5176 2.48774C41.5176 3.86076 42.6297 4.97165 44.0053 4.97165C45.3809 4.97165 46.4905 3.85822 46.4905 2.48774C46.4905 1.11725 45.3771 0 44.0053 0Z" fill="white"/>
<path id="Vector_4" d="M14.4861 1.43018V10.2626H4.87367V1.43018H0V23.0856H4.87367V14.2519H14.4861V23.0856H19.3623V1.43018H14.4861Z" fill="white"/>
<path id="Vector_5" d="M34.6098 6.69858V7.57788C33.3144 6.79529 31.7963 6.34229 30.1675 6.34229C25.4415 6.34229 21.6074 10.1623 21.6074 14.8757C21.6074 19.589 25.4415 23.4078 30.1675 23.4078C31.7531 23.4078 33.2342 22.9777 34.508 22.232V23.0871H38.8587V6.69858H34.6111H34.6098ZM30.3851 19.8104C27.6263 19.8104 25.3957 17.6026 25.3957 14.8769C25.3957 12.1512 27.6263 9.93964 30.3851 9.93964C33.1439 9.93964 35.3771 12.15 35.3771 14.8769C35.3771 17.6039 33.1426 19.8104 30.3851 19.8104Z" fill="white"/>
<path id="Vector_6" d="M75.2622 5.1665C71.1558 5.88419 68.0357 9.45737 67.9873 13.7648V23.1011H72.2565L72.2591 13.5892C72.2591 11.4119 73.8942 9.61516 76.0015 9.35684L75.2635 5.16778L75.2622 5.1665Z" fill="white"/>
</g>
<defs>
<clipPath id="clip0_115_1240">
<rect width="76" height="23.4076" fill="white"/>
</clipPath>
</defs>
</svg>
